<svg width="20" height="20" viewBox="0 0 20 20" fill="none" xmlns="http://www.w3.org/2000/svg">
<path d="M11.5 2.65003C11.0153 2.55165 10.5137 2.5 10 2.5C5.85786 2.5 2.5 5.85786 2.5 10C2.5 14.1421 5.85786 17.5 10 17.5C14.1421 17.5 17.5 14.1421 17.5 10C17.5 9.4863 17.4484 8.98466 17.35 8.5" stroke="#DBDBDB" stroke-width="1.5" stroke-linecap="round" stroke-linejoin="round"/>
<path d="M14 4H18" stroke="#DBDBDB" stroke-width="1.5" stroke-linecap="round"/>
<path d="M16 2L16 6" stroke="#DBDBDB" stroke-width="1.5" stroke-linecap="round"/>
<path d="M7.1875 9.21875C7.61897 9.21875 7.96875 8.86897 7.96875 8.4375C7.96875 8.00603 7.61897 7.65625 7.1875 7.65625C6.75603 7.65625 6.40625 8.00603 6.40625 8.4375C6.40625 8.86897 6.75603 9.21875 7.1875 9.21875Z" fill="#DBDBDB"/>
<path d="M12.8125 9.21875C13.244 9.21875 13.5938 8.86897 13.5938 8.4375C13.5938 8.00603 13.244 7.65625 12.8125 7.65625C12.381 7.65625 12.0312 8.00603 12.0312 8.4375C12.0312 8.86897 12.381 9.21875 12.8125 9.21875Z" fill="#DBDBDB"/>
<path d="M13.2488 11.875C12.9195 12.4451 12.446 12.9186 11.8758 13.2477C11.3056 13.5769 10.6588 13.7502 10.0004 13.7502C9.34199 13.7502 8.69519 13.5769 8.12498 13.2478C7.55477 12.9186 7.08123 12.4452 6.75195 11.875" stroke="#DBDBDB" stroke-width="1.5" stroke-linecap="round" stroke-linejoin="round"/>
</svg>
