<svg width="12" height="12" viewBox="-10 0 34 12" fill="none" xmlns="http://www.w3.org/2000/svg">
<path d="M11.7617 5.65318C11.2909 4.6613 10.7306 3.85237 10.0809 3.22639L9.39945 3.90782C9.95512 4.43885 10.4391 5.13353 10.8577 5.99871C9.74338 8.30496 8.16168 9.4005 6.00008 9.4005C5.35124 9.4005 4.7536 9.30059 4.20718 9.10077L3.46883 9.83911C4.22776 10.1896 5.07151 10.3648 6.00008 10.3648C8.57419 10.3648 10.4947 9.02416 11.7617 6.34291C11.8126 6.23508 11.839 6.1173 11.839 5.99804C11.839 5.87879 11.8126 5.76101 11.7617 5.65318V5.65318ZM10.9103 1.35889L10.3394 0.787283C10.3294 0.777321 10.3176 0.769418 10.3046 0.764027C10.2916 0.758635 10.2776 0.755859 10.2636 0.755859C10.2495 0.755859 10.2355 0.758635 10.2225 0.764027C10.2095 0.769418 10.1977 0.777321 10.1878 0.787283L8.72298 2.25139C7.91539 1.83889 7.00776 1.63264 6.00008 1.63264C3.42597 1.63264 1.50543 2.97327 0.23847 5.65452C0.187544 5.76235 0.161133 5.88013 0.161133 5.99938C0.161133 6.11864 0.187544 6.23641 0.23847 6.34425C0.744631 7.41032 1.35401 8.26483 2.0666 8.90777L0.649363 10.3246C0.629285 10.3447 0.618007 10.3719 0.618007 10.4003C0.618007 10.4287 0.629285 10.456 0.649363 10.4761L1.2211 11.0478C1.2412 11.0679 1.26844 11.0792 1.29684 11.0792C1.32524 11.0792 1.35249 11.0679 1.37258 11.0478L10.9103 1.5105C10.9203 1.50055 10.9282 1.48873 10.9336 1.47572C10.9389 1.46272 10.9417 1.44877 10.9417 1.43469C10.9417 1.42061 10.9389 1.40667 10.9336 1.39366C10.9282 1.38066 10.9203 1.36884 10.9103 1.35889ZM1.14249 5.99871C2.25811 3.69246 3.83981 2.59693 6.00008 2.59693C6.73052 2.59693 7.39468 2.72228 7.99722 2.97715L7.0557 3.91867C6.60981 3.68076 6.09926 3.59247 5.59937 3.66681C5.09948 3.74115 4.63672 3.97419 4.27935 4.33156C3.92199 4.68892 3.68895 5.15168 3.6146 5.65158C3.54026 6.15147 3.62856 6.66202 3.86646 7.10791L2.74923 8.22514C2.13088 7.67938 1.59785 6.93996 1.14249 5.99871ZM4.44651 5.99871C4.44674 5.76255 4.50268 5.52977 4.60978 5.31929C4.71688 5.1088 4.87212 4.92655 5.06289 4.78734C5.25366 4.64813 5.47457 4.55587 5.70769 4.51808C5.94081 4.48029 6.17956 4.49802 6.40454 4.56983L4.51762 6.45675C4.47033 6.30868 4.44634 6.15415 4.44651 5.99871V5.99871Z" fill="#323F4B"/>
<path d="M5.94674 7.50094C5.9004 7.50094 5.85473 7.49879 5.80946 7.49464L5.10205 8.20205C5.52753 8.365 5.9911 8.40121 6.43672 8.30631C6.88233 8.21141 7.29092 7.98946 7.61309 7.66729C7.93526 7.34512 8.15721 6.93653 8.25211 6.49092C8.34701 6.0453 8.3108 5.58173 8.14785 5.15625L7.44044 5.86366C7.4446 5.90893 7.44674 5.9546 7.44674 6.00094C7.44684 6.19795 7.40812 6.39305 7.33277 6.57509C7.25743 6.75712 7.14694 6.92252 7.00763 7.06183C6.86832 7.20114 6.70292 7.31163 6.52089 7.38697C6.33885 7.46232 6.14375 7.50104 5.94674 7.50094V7.50094Z" fill="#323F4B"/>
</svg>
