<svg width="16" height="16" viewBox="0 0 16 16" fill="none" xmlns="http://www.w3.org/2000/svg">
<path d="M13.8733 7.06398C13.5279 6.71239 13.0557 6.51433 12.5628 6.51433H12.2666V5.14291C12.2666 3.99111 11.8171 2.88655 11.017 2.0721C10.2168 1.25766 9.13157 0.800049 7.99998 0.800049C6.86838 0.800049 5.78314 1.25766 4.98298 2.0721C4.18283 2.88655 3.73331 3.99111 3.73331 5.14291V6.51433H3.43718C2.94428 6.51433 2.47206 6.71239 2.12663 7.06398C1.7891 7.40755 1.59998 7.86991 1.59998 8.35154V13.3628C1.59998 13.8445 1.7891 14.3068 2.12663 14.6504C2.47206 15.002 2.94428 15.2 3.43718 15.2H12.5628C13.0557 15.2 13.5279 15.002 13.8733 14.6504C14.2108 14.3068 14.4 13.8445 14.4 13.3628V8.35154C14.4 7.86991 14.2108 7.40755 13.8733 7.06398ZM4.79998 5.14291C4.79998 4.27906 5.1371 3.45057 5.73722 2.83974C6.33733 2.22891 7.15128 1.88576 7.99998 1.88576C8.84867 1.88576 9.66262 2.22891 10.2627 2.83974C10.8629 3.45057 11.2 4.27906 11.2 5.14291V6.51433H4.79998V5.14291ZM13.3333 13.1143C13.3333 13.6666 12.8856 14.1143 12.3333 14.1143H3.66664C3.11436 14.1143 2.66664 13.6666 2.66664 13.1143V8.60005C2.66664 8.04776 3.11436 7.60005 3.66664 7.60005H12.3333C12.8856 7.60005 13.3333 8.04776 13.3333 8.60005V13.1143Z" fill="white"/>
</svg>
