<svg width="18" height="17" viewBox="0 0 18 17" fill="none" xmlns="http://www.w3.org/2000/svg">
<path d="M7 2.5C7 1.96957 7.21071 1.46086 7.58579 1.08579C7.96086 0.710714 8.46957 0.5 9 0.5C9.53043 0.5 10.0391 0.710714 10.4142 1.08579C10.7893 1.46086 11 1.96957 11 2.5V14.5C11 15.0304 10.7893 15.5391 10.4142 15.9142C10.0391 16.2893 9.53043 16.5 9 16.5C8.46957 16.5 7.96086 16.2893 7.58579 15.9142C7.21071 15.5391 7 15.0304 7 14.5V2.5ZM9 1.5C8.73478 1.5 8.48043 1.60536 8.29289 1.79289C8.10536 1.98043 8 2.23478 8 2.5V14.5C8 14.7652 8.10536 15.0196 8.29289 15.2071C8.48043 15.3946 8.73478 15.5 9 15.5C9.26522 15.5 9.51957 15.3946 9.70711 15.2071C9.89464 15.0196 10 14.7652 10 14.5V2.5C10 2.23478 9.89464 1.98043 9.70711 1.79289C9.51957 1.60536 9.26522 1.5 9 1.5ZM1 10.5C1 9.96957 1.21071 9.46086 1.58579 9.08579C1.96086 8.71071 2.46957 8.5 3 8.5C3.53043 8.5 4.03914 8.71071 4.41421 9.08579C4.78929 9.46086 5 9.96957 5 10.5V14.5C5 15.0304 4.78929 15.5391 4.41421 15.9142C4.03914 16.2893 3.53043 16.5 3 16.5C2.46957 16.5 1.96086 16.2893 1.58579 15.9142C1.21071 15.5391 1 15.0304 1 14.5V10.5ZM3 9.5C2.73478 9.5 2.48043 9.60536 2.29289 9.79289C2.10536 9.98043 2 10.2348 2 10.5V14.5C2 14.7652 2.10536 15.0196 2.29289 15.2071C2.48043 15.3946 2.73478 15.5 3 15.5C3.26522 15.5 3.51957 15.3946 3.70711 15.2071C3.89464 15.0196 4 14.7652 4 14.5V10.5C4 10.2348 3.89464 9.98043 3.70711 9.79289C3.51957 9.60536 3.26522 9.5 3 9.5ZM15 4.5C14.4696 4.5 13.9609 4.71071 13.5858 5.08579C13.2107 5.46086 13 5.96957 13 6.5V14.5C13 15.0304 13.2107 15.5391 13.5858 15.9142C13.9609 16.2893 14.4696 16.5 15 16.5C15.5304 16.5 16.0391 16.2893 16.4142 15.9142C16.7893 15.5391 17 15.0304 17 14.5V6.5C17 5.96957 16.7893 5.46086 16.4142 5.08579C16.0391 4.71071 15.5304 4.5 15 4.5ZM14 6.5C14 6.23478 14.1054 5.98043 14.2929 5.79289C14.4804 5.60536 14.7348 5.5 15 5.5C15.2652 5.5 15.5196 5.60536 15.7071 5.79289C15.8946 5.98043 16 6.23478 16 6.5V14.5C16 14.7652 15.8946 15.0196 15.7071 15.2071C15.5196 15.3946 15.2652 15.5 15 15.5C14.7348 15.5 14.4804 15.3946 14.2929 15.2071C14.1054 15.0196 14 14.7652 14 14.5V6.5Z" fill="#C1C1C1" stroke="#C1C1C1" stroke-width="0.5"/>
</svg>
