<svg width="14" height="14" viewBox="0 0 14 14" fill="none" xmlns="http://www.w3.org/2000/svg">
<g clip-path="url(#clip0)">
<path d="M10.1375 7.575C10.975 6.7375 11.4375 5.62188 11.4375 4.4375C11.4375 3.25156 10.9766 2.1375 10.1375 1.3C9.3 0.4625 8.18438 0 7 0C5.81563 0 4.7 0.460937 3.8625 1.3C3.025 2.13906 2.5625 3.25156 2.5625 4.4375C2.5625 5.43437 2.88906 6.38125 3.49063 7.15469C3.60469 7.30156 3.72813 7.44062 3.86094 7.575C3.99375 7.70781 4.13438 7.83125 4.27969 7.94531C4.89844 8.42656 5.62813 8.73281 6.40625 8.83594V10.5H4.625C4.55625 10.5 4.5 10.5562 4.5 10.625V11.5625C4.5 11.6313 4.55625 11.6875 4.625 11.6875H6.40625V13.875C6.40625 13.9438 6.4625 14 6.53125 14H7.46875C7.5375 14 7.59375 13.9438 7.59375 13.875V11.6875H9.375C9.44375 11.6875 9.5 11.6313 9.5 11.5625V10.625C9.5 10.5562 9.44375 10.5 9.375 10.5H7.59375V8.83594C8.55469 8.70781 9.44063 8.27187 10.1375 7.575ZM7 7.6875C6.13125 7.6875 5.31719 7.35 4.70156 6.73594C4.0875 6.12188 3.75 5.30625 3.75 4.4375C3.75 3.56875 4.0875 2.75469 4.70156 2.13906C5.31563 1.52344 6.13125 1.1875 7 1.1875C7.86875 1.1875 8.68281 1.525 9.29844 2.13906C9.9125 2.75312 10.25 3.56875 10.25 4.4375C10.25 5.30625 9.9125 6.12031 9.29844 6.73594C8.68281 7.35 7.86875 7.6875 7 7.6875Z" fill="#323F4B"/>
</g>
<defs>
<clipPath id="clip0">
<rect width="14" height="14" fill="white"/>
</clipPath>
</defs>
</svg>
